<?xml version="1.0" encoding="iso-8859-1"?>
<!-- Uploaded to: SVG Repo, www.svgrepo.com, Generator: SVG Repo Mixer Tools -->
<svg fill="#000000" height="800px" width="800px" version="1.1" id="Layer_1" xmlns="http://www.w3.org/2000/svg" xmlns:xlink="http://www.w3.org/1999/xlink" 
	 viewBox="0 0 496.004 496.004" xml:space="preserve">
<g>
	<g>
		<path d="M494.624,81.479c-0.928-0.736-2.088-1.016-3.256-0.728L329.88,119.783L168.272,42.811
			c-0.032-0.012-0.052-0.004-0.076-0.02c-0.176-0.08-0.36-0.092-0.544-0.144c-0.2-0.056-0.392-0.112-0.592-0.144
			c-0.124-0.016-0.244-0.048-0.368-0.056c-0.024,0-0.048-0.016-0.076-0.016c-0.16,0-0.3,0.08-0.452,0.1
			c-0.144,0.016-0.284-0.032-0.432,0.008L2.932,80.751C1.18,81.163,0,82.723,0,84.523v326.784c0,1.188,0.484,2.308,1.416,3.044
			c0.696,0.548,1.516,0.832,2.376,0.832c0.296,0,0.584-0.028,0.884-0.104L166.2,376.651l161.62,76.92
			c0.056,0.024,0.112-0.264,0.168-0.24c0.472,0.2,0.968,0.048,1.476,0.048h-0.084v-0.072c0,0,0.656,0.276,0.948,0.212
			l162.776-38.592c1.752-0.42,2.9-1.82,2.9-3.616V84.523C496,83.335,495.564,82.215,494.624,81.479z M342.724,301.219l-2.1,30.576
			c-0.496,7.152-6.452,12.624-13.516,12.624c-0.316,0-0.628-0.008-0.944-0.032c-6.468-0.436-11.544-5.36-12.468-11.504
			c-15.18,11.308-33.1,18.568-52.416,20.912c-4.516,0.556-9.036,0.824-13.52,0.824c-24.492,0-48.128-8.108-67.716-23.452
			c-31.188-24.408-46.916-63.936-41.04-103.148c1.108-7.412,7.976-12.496,15.42-11.4c7.408,1.104,12.516,8.008,11.4,15.416
			c-4.424,29.572,7.424,59.364,30.94,77.768c17.472,13.68,39.2,19.752,61.24,17.064c14.272-1.736,27.52-7.056,38.82-15.296
			c-7.028-0.952-12.224-7.144-11.736-14.32c0.512-7.476,6.972-13.084,14.46-12.6l30.576,2.104
			C337.596,287.271,343.236,293.739,342.724,301.219z M357.1,259.759c-0.948,6.78-6.756,11.684-13.416,11.684
			c-0.628,0-1.26-0.036-1.9-0.12c-7.416-1.044-12.588-7.9-11.556-15.316c4.092-29.272-7.808-58.776-31.056-76.972
			c-29.784-23.324-70.632-22.976-99.868-1.844c6.276,1.544,10.744,7.396,10.276,14.072c-0.492,7.148-6.448,12.628-13.512,12.628
			c-0.312,0-0.632-0.016-0.952-0.036l-30.568-2.112c-7.468-0.516-13.104-6.992-12.596-14.456l2.104-30.576
			c0.512-7.476,6.952-13.02,14.46-12.6c6.896,0.476,12.164,6.032,12.552,12.76c38.916-29.724,94.524-30.752,134.824,0.808
			C346.744,181.823,362.524,220.931,357.1,259.759z"/>
	</g>
</g>
</svg>